<svg xmlns="http://www.w3.org/2000/svg" width="42" height="42" viewBox="0 0 42 42">
  <defs>
    <style>
      .cls-1 {
        fill-rule: evenodd;
      }
    </style>
  </defs>
  <path id="Forma_1" fill="#fff" data-name="Forma 1" class="cls-1" d="M21,4.235A1.235,1.235,0,1,1,19.765,5.47,1.235,1.235,0,0,1,21,4.235ZM21,42A21,21,0,1,1,42,20.912,21.051,21.051,0,0,1,21,42ZM21,2.559A18.353,18.353,0,1,0,39.353,20.912,18.339,18.339,0,0,0,21,2.559Zm0,32.647a1.235,1.235,0,1,1-1.235,1.235A1.235,1.235,0,0,1,21,35.206ZM36.441,19.676a1.235,1.235,0,1,1-1.235,1.235A1.235,1.235,0,0,1,36.441,19.676Zm-30.882,0a1.235,1.235,0,1,1-1.235,1.235A1.235,1.235,0,0,1,5.559,19.676Zm15,3.971a1.327,1.327,0,0,1-.971-0.353l-4.235-4.412a1.31,1.31,0,0,1,1.853-1.853l3.353,3.353,7.765-7.765a1.31,1.31,0,0,1,1.853,1.853l-8.647,8.735A1.418,1.418,0,0,1,20.559,23.647Z"/>
</svg>
