<svg xmlns="http://www.w3.org/2000/svg" width="42" height="42" viewBox="0 0 42 42">
  <defs>
    <style>
      .cls-1 {
        fill-rule: evenodd;
      }
    </style>
  </defs>
  <path fill="#fff" id="Forma_1" data-name="Forma 1" class="cls-1" d="M30.844,5a4.928,4.928,0,0,0-4.922,4.922H14.848a4.929,4.929,0,1,0-.662,2.461h12.4A4.921,4.921,0,1,0,30.844,5ZM9.926,12.386a2.461,2.461,0,1,1,2.461-2.461A2.464,2.464,0,0,1,9.926,12.386Zm20.918,0A2.461,2.461,0,1,1,33.3,9.926,2.464,2.464,0,0,1,30.844,12.386ZM21,0a4.988,4.988,0,0,0-4.922,5,4.922,4.922,0,1,0,9.844,0A4.989,4.989,0,0,0,21,0Zm0,7.465A2.464,2.464,0,0,1,18.539,5a2.462,2.462,0,1,1,4.922,0A2.464,2.464,0,0,1,21,7.465Zm14.766,7.383H28.383a3.7,3.7,0,0,0-3.691,3.691v21H22.23V28.383a1.23,1.23,0,0,0-2.461,0V39.539H17.309v-21a3.7,3.7,0,0,0-3.691-3.691H6.234A6.218,6.218,0,0,0,0,21v4.922a3.759,3.759,0,0,0,3.773,3.691A3.676,3.676,0,0,0,5,29.4V40.769A1.231,1.231,0,0,0,6.234,42H35.766A1.231,1.231,0,0,0,37,40.769V29.4a3.676,3.676,0,0,0,1.23.211A3.759,3.759,0,0,0,42,25.922V21A6.218,6.218,0,0,0,35.766,14.847ZM14.848,39.539H12.387v-8.7a1.23,1.23,0,0,0-2.461,0v8.7H7.465V21A1.23,1.23,0,1,0,5,21v4.922a1.232,1.232,0,0,1-1.23,1.23,1.307,1.307,0,0,1-1.313-1.23V21a3.783,3.783,0,0,1,3.773-3.692h7.383a1.232,1.232,0,0,1,1.23,1.23v21ZM39.539,25.922a1.307,1.307,0,0,1-1.312,1.23A1.232,1.232,0,0,1,37,25.922V21a1.23,1.23,0,1,0-2.461,0V39.539H32.074v-8.7a1.23,1.23,0,0,0-2.461,0v8.7H27.152v-21a1.232,1.232,0,0,1,1.23-1.23h7.383A3.783,3.783,0,0,1,39.539,21v4.922Z"/>
</svg>
