<svg xmlns="http://www.w3.org/2000/svg" width="54" height="39" viewBox="0 0 54 39">
  <defs>
    <style>
      .cls-1 {
        fill-rule: evenodd;
      }
    </style>
  </defs>
  <path id="Forma_1" data-name="Forma 1" fill="#fff" class="cls-1" d="M31.852,20.611h-9.7a1.011,1.011,0,1,0,0,2.021h9.7A1.011,1.011,0,1,0,31.852,20.611ZM52.945,7.072H49.781V3.031A3.1,3.1,0,0,0,46.617,0a3.23,3.23,0,0,0-2.109.774A3.231,3.231,0,0,0,42.4,0a3.1,3.1,0,0,0-3.164,3.031V7.072H37.125V6.062a1.056,1.056,0,0,0-2.109,0v1.01H18.984V6.062a1.056,1.056,0,0,0-2.109,0v1.01H14.766V3.031A3.1,3.1,0,0,0,11.6,0,3.23,3.23,0,0,0,9.492.774,3.231,3.231,0,0,0,7.383,0,3.1,3.1,0,0,0,4.219,3.031V7.072H1.055a1.011,1.011,0,1,0,0,2.021H4.219v4.041a3.1,3.1,0,0,0,3.164,3.031,3.23,3.23,0,0,0,2.109-.774,3.23,3.23,0,0,0,2.109.774,3.1,3.1,0,0,0,3.164-3.031V9.093h2.109V36.979H16.77a1.011,1.011,0,1,0,0,2.021H37.125a1.011,1.011,0,1,0,0-2.021V9.093h2.109v4.041A3.1,3.1,0,0,0,42.4,16.166a3.23,3.23,0,0,0,2.109-.774,3.23,3.23,0,0,0,2.109.774,3.1,3.1,0,0,0,3.164-3.031V9.093h3.164A1.011,1.011,0,1,0,52.945,7.072ZM8.437,13.135a1.056,1.056,0,0,1-2.109,0V3.031a1.056,1.056,0,0,1,2.109,0v10.1Zm4.219,0a1.056,1.056,0,0,1-2.109,0V3.031a1.056,1.056,0,0,1,2.109,0v10.1Zm8.437,23.845H18.984V34.958h2.109v2.021Zm0-4.041H18.984V26.673h2.109v6.264Zm9.7,4.041H23.2V26.673H30.8V36.979Zm4.219,0H32.906V34.958h2.109v2.021Zm0-4.041H32.906V26.673h2.109v6.264Zm0-8.285H18.984V9.093H35.016v15.56Zm8.438-11.518a1.056,1.056,0,0,1-2.109,0V3.031a1.056,1.056,0,0,1,2.109,0v10.1Zm4.219,0a1.056,1.056,0,0,1-2.109,0V3.031a1.056,1.056,0,0,1,2.109,0v10.1Z"/>
</svg>
